<svg width="109" height="81" viewBox="0 0 109 81" fill="none" xmlns="http://www.w3.org/2000/svg">
<g filter="url(#filter0_d_25_449)">
<path d="M103.566 27.6944C103.295 27.479 100.763 25.5673 95.4236 25.5673C94.0137 25.5735 92.6068 25.6944 91.2166 25.9289C90.1832 18.8458 84.3271 15.3924 84.0645 15.2375L82.6308 14.4106L81.6878 15.7714C80.5069 17.5993 79.6448 19.6143 79.1387 21.7307C78.1827 25.774 78.7641 29.5717 80.818 32.8184C78.3378 34.2006 74.3592 34.5408 73.554 34.5709H7.68251C5.96196 34.5732 4.56582 35.9636 4.55645 37.684C4.47961 43.4547 5.4573 49.191 7.44138 54.6104C9.71052 60.5612 13.0864 64.9446 17.4784 67.6272C22.4001 70.6413 30.3961 72.3636 39.46 72.3636C43.5546 72.3765 47.6416 72.0059 51.6673 71.2571C57.2633 70.2295 62.6481 68.2736 67.599 65.4699C71.6784 63.1075 75.3499 60.1022 78.4714 56.5696C83.6902 50.6619 86.7992 44.0824 89.1113 38.2352H90.0327C95.7466 38.2352 99.2603 35.9487 101.198 34.0326C102.486 32.8106 103.491 31.3219 104.143 29.6708L104.552 28.4738L103.566 27.6944Z" fill="#2496ED"/>
<path d="M13.7882 32.6419H22.6153C23.041 32.6419 23.386 32.2968 23.386 31.8712V24.0086C23.3884 23.5828 23.0452 23.2359 22.6196 23.2335C22.6182 23.2335 22.6167 23.2335 22.6153 23.2335H13.7882C13.3625 23.2335 13.0175 23.5786 13.0175 24.0042V24.0086V31.8711C13.0175 32.2968 13.3625 32.6419 13.7882 32.6419Z" fill="#2496ED"/>
<path d="M25.9524 32.6419H34.7795C35.2052 32.6419 35.5502 32.2968 35.5502 31.8712V24.0086C35.5526 23.5828 35.2094 23.2359 34.7837 23.2335C34.7823 23.2335 34.7808 23.2335 34.7794 23.2335H25.9523C25.5242 23.2335 25.1772 23.5805 25.1772 24.0086V31.8711C25.1798 32.2975 25.526 32.6419 25.9524 32.6419Z" fill="#2496ED"/>
<path d="M38.3016 32.6419H47.1287C47.5544 32.6419 47.8994 32.2968 47.8994 31.8712V24.0086C47.9018 23.5828 47.5586 23.2359 47.1329 23.2335C47.1315 23.2335 47.1299 23.2335 47.1285 23.2335H38.3015C37.8757 23.2335 37.5308 23.5786 37.5308 24.0042V24.0086V31.8711C37.5309 32.2968 37.876 32.6419 38.3016 32.6419Z" fill="#2496ED"/>
<path d="M50.5045 32.6419H59.3316C59.758 32.6419 60.1043 32.2977 60.1066 31.8712V24.0086C60.1066 23.5805 59.7597 23.2335 59.3316 23.2335H50.5045C50.0788 23.2335 49.7338 23.5786 49.7338 24.0042V24.0086V31.8711C49.7338 32.2968 50.0789 32.6419 50.5045 32.6419Z" fill="#2496ED"/>
<path d="M25.9524 21.3304H34.7795C35.2058 21.328 35.5502 20.9816 35.5502 20.5554V12.6928C35.5502 12.2671 35.2051 11.9221 34.7795 11.9221H25.9524C25.5261 11.9221 25.1797 12.2664 25.1774 12.6928V20.5554C25.1797 20.9825 25.5253 21.328 25.9524 21.3304Z" fill="#2496ED"/>
<path d="M38.3016 21.3304H47.1287C47.5549 21.328 47.8994 20.9816 47.8994 20.5554V12.6928C47.8994 12.2671 47.5542 11.9221 47.1287 11.9221H38.3016C37.8759 11.9221 37.5309 12.2672 37.5309 12.6928V20.5554C37.5309 20.9816 37.8753 21.328 38.3016 21.3304Z" fill="#2496ED"/>
<path d="M50.5045 21.3304H59.3316C59.7587 21.328 60.1043 20.9825 60.1066 20.5554V12.6928C60.1043 12.2664 59.758 11.9221 59.3316 11.9221H50.5045C50.0788 11.9221 49.7338 12.2672 49.7338 12.6928V20.5554C49.7338 20.9816 50.0782 21.328 50.5045 21.3304Z" fill="#2496ED"/>
<path d="M50.5045 10.0146H59.3316C59.758 10.0146 60.1043 9.6702 60.1066 9.24391V1.37691C60.1043 0.950478 59.758 0.606201 59.3316 0.606201H50.5045C50.0788 0.606201 49.7338 0.951178 49.7338 1.37691V9.24377C49.7338 9.6695 50.0789 10.0146 50.5045 10.0146Z" fill="#2496ED"/>
<path d="M62.8151 32.6419H71.6421C72.0686 32.6419 72.4148 32.2977 72.4172 31.8712V24.0086C72.4172 23.5805 72.0703 23.2335 71.6421 23.2335H62.8151C62.3895 23.2335 62.0444 23.5786 62.0444 24.0042V24.0086V31.8711C62.0444 32.2968 62.3895 32.6419 62.8151 32.6419Z" fill="#2496ED"/>
</g>
<defs>
<filter id="filter0_d_25_449" x="0.552246" y="0.606201" width="108" height="79.7578" filterUnits="userSpaceOnUse" color-interpolation-filters="sRGB">
<feFlood flood-opacity="0" result="BackgroundImageFix"/>
<feColorMatrix in="SourceAlpha" type="matrix" values="0 0 0 0 0 0 0 0 0 0 0 0 0 0 0 0 0 0 127 0" result="hardAlpha"/>
<feOffset dy="4"/>
<feGaussianBlur stdDeviation="2"/>
<feComposite in2="hardAlpha" operator="out"/>
<feColorMatrix type="matrix" values="0 0 0 0 0 0 0 0 0 0 0 0 0 0 0 0 0 0 0.25 0"/>
<feBlend mode="normal" in2="BackgroundImageFix" result="effect1_dropShadow_25_449"/>
<feBlend mode="normal" in="SourceGraphic" in2="effect1_dropShadow_25_449" result="shape"/>
</filter>
</defs>
</svg>
